<svg xmlns="http://www.w3.org/2000/svg" xmlns:xlink="http://www.w3.org/1999/xlink" width="600" height="400" viewBox="0 0 2400 1600">
<defs>
  <clipPath id="clip740">
    <rect x="0" y="0" width="2400" height="1600"></rect>
  </clipPath>
</defs>
<path clip-path="url(#clip740)" d="
M0 1600 L2400 1600 L2400 0 L0 0  Z
  " fill="#ffffff" fill-rule="evenodd" fill-opacity="1"></path>
<defs>
  <clipPath id="clip741">
    <rect x="480" y="0" width="1681" height="1600"></rect>
  </clipPath>
</defs>
<defs>
  <clipPath id="clip742">
    <rect x="335" y="47" width="2018" height="1282"></rect>
  </clipPath>
</defs>
<path clip-path="url(#clip740)" d="
M198.015 1408.76 L2352.76 1408.76 L2352.76 47.2441 L198.015 47.2441  Z
  " fill="#ffffff" fill-rule="evenodd" fill-opacity="1"></path>
<defs>
  <clipPath id="clip743">
    <rect x="198" y="47" width="2156" height="1363"></rect>
  </clipPath>
</defs>
<polyline clip-path="url(#clip740)" style="stroke:#000000; stroke-linecap:butt; stroke-linejoin:round; stroke-width:4; stroke-opacity:1; fill:none" points="
  198.015,1408.76 2352.76,1408.76 
  "></polyline>
<polyline clip-path="url(#clip740)" style="stroke:#000000; stroke-linecap:butt; stroke-linejoin:round; stroke-width:4; stroke-opacity:1; fill:none" points="
  198.015,47.2441 2352.76,47.2441 
  "></polyline>
<polyline clip-path="url(#clip740)" style="stroke:#000000; stroke-linecap:butt; stroke-linejoin:round; stroke-width:4; stroke-opacity:1; fill:none" points="
  248.732,1408.76 248.732,1392.43 
  "></polyline>
<polyline clip-path="url(#clip740)" style="stroke:#000000; stroke-linecap:butt; stroke-linejoin:round; stroke-width:4; stroke-opacity:1; fill:none" points="
  762.059,1408.76 762.059,1392.43 
  "></polyline>
<polyline clip-path="url(#clip740)" style="stroke:#000000; stroke-linecap:butt; stroke-linejoin:round; stroke-width:4; stroke-opacity:1; fill:none" points="
  1275.39,1408.76 1275.39,1392.43 
  "></polyline>
<polyline clip-path="url(#clip740)" style="stroke:#000000; stroke-linecap:butt; stroke-linejoin:round; stroke-width:4; stroke-opacity:1; fill:none" points="
  1788.71,1408.76 1788.71,1392.43 
  "></polyline>
<polyline clip-path="url(#clip740)" style="stroke:#000000; stroke-linecap:butt; stroke-linejoin:round; stroke-width:4; stroke-opacity:1; fill:none" points="
  2302.04,1408.76 2302.04,1392.43 
  "></polyline>
<path clip-path="url(#clip740)" d="M232.761 1465.9 Q232.761 1454.75 235.577 1448.67 Q239.505 1439.63 248.769 1439.63 Q250.733 1439.63 252.771 1440.18 Q254.846 1440.7 257.44 1442.74 Q260.07 1444.78 261.664 1448.11 Q264.702 1454.56 264.702 1465.9 Q264.702 1476.98 261.886 1483.02 Q257.773 1491.84 248.695 1491.84 Q245.286 1491.84 241.802 1490.1 Q238.356 1488.36 236.17 1484.17 Q232.761 1477.91 232.761 1465.9 M239.06 1464.97 Q239.06 1476.42 239.875 1480.98 Q240.802 1485.91 243.322 1488.06 Q245.878 1490.17 248.695 1490.17 Q251.733 1490.17 254.253 1487.91 Q256.81 1485.61 257.588 1480.69 Q258.44 1475.83 258.403 1464.97 Q258.403 1454.41 257.662 1450.19 Q256.661 1445.26 253.993 1443.3 Q251.363 1441.3 248.695 1441.3 Q247.694 1441.3 246.619 1441.59 Q245.582 1441.89 244.063 1442.74 Q242.543 1443.59 241.358 1445.71 Q240.209 1447.82 239.653 1451 Q239.06 1455.12 239.06 1464.97 Z" fill="#000000" fill-rule="evenodd" fill-opacity="1"></path><path clip-path="url(#clip740)" d="M729.005 1446.85 L729.005 1444.48 Q738.121 1444.48 742.827 1439.63 Q744.124 1439.63 744.346 1439.92 Q744.569 1440.22 744.569 1441.59 L744.569 1484.17 Q744.569 1486.43 745.68 1487.13 Q746.792 1487.84 751.646 1487.84 L754.055 1487.84 L754.055 1490.17 Q751.387 1489.95 741.752 1489.95 Q732.118 1489.95 729.487 1490.17 L729.487 1487.84 L731.896 1487.84 Q736.676 1487.84 737.825 1487.17 Q738.973 1486.47 738.973 1484.17 L738.973 1444.85 Q735.008 1446.85 729.005 1446.85 Z" fill="#000000" fill-rule="evenodd" fill-opacity="1"></path><path clip-path="url(#clip740)" d="M763.17 1465.9 Q763.17 1454.75 765.986 1448.67 Q769.914 1439.63 779.178 1439.63 Q781.142 1439.63 783.18 1440.18 Q785.255 1440.7 787.849 1442.74 Q790.48 1444.78 792.073 1448.11 Q795.112 1454.56 795.112 1465.9 Q795.112 1476.98 792.295 1483.02 Q788.182 1491.84 779.104 1491.84 Q775.695 1491.84 772.212 1490.1 Q768.765 1488.36 766.579 1484.17 Q763.17 1477.91 763.17 1465.9 M769.47 1464.97 Q769.47 1476.42 770.285 1480.98 Q771.211 1485.91 773.731 1488.06 Q776.288 1490.17 779.104 1490.17 Q782.142 1490.17 784.662 1487.91 Q787.219 1485.61 787.997 1480.69 Q788.849 1475.83 788.812 1464.97 Q788.812 1454.41 788.071 1450.19 Q787.071 1445.26 784.403 1443.3 Q781.772 1441.3 779.104 1441.3 Q778.103 1441.3 777.029 1441.59 Q775.991 1441.89 774.472 1442.74 Q772.953 1443.59 771.767 1445.71 Q770.618 1447.82 770.062 1451 Q769.47 1455.12 769.47 1464.97 Z" fill="#000000" fill-rule="evenodd" fill-opacity="1"></path><path clip-path="url(#clip740)" d="M1240.85 1490.17 Q1240.85 1488.8 1240.96 1488.39 Q1241.11 1487.99 1241.7 1487.36 L1256.27 1471.13 Q1264.23 1462.16 1264.23 1454.34 Q1264.23 1449.26 1261.56 1445.63 Q1258.93 1442 1254.08 1442 Q1250.74 1442 1247.93 1444.04 Q1245.11 1446.08 1243.81 1449.71 Q1244.04 1449.63 1244.82 1449.63 Q1246.7 1449.63 1247.74 1450.82 Q1248.82 1452 1248.82 1453.6 Q1248.82 1455.64 1247.48 1456.64 Q1246.19 1457.6 1244.89 1457.6 Q1244.37 1457.6 1243.67 1457.49 Q1243 1457.38 1241.92 1456.34 Q1240.85 1455.27 1240.85 1453.38 Q1240.85 1448.08 1244.85 1443.85 Q1248.89 1439.63 1255.04 1439.63 Q1262.01 1439.63 1266.57 1443.78 Q1271.16 1447.89 1271.16 1454.34 Q1271.16 1456.6 1270.46 1458.67 Q1269.79 1460.71 1268.86 1462.31 Q1267.97 1463.9 1265.53 1466.46 Q1263.08 1469.01 1261.12 1470.83 Q1259.16 1472.64 1254.75 1476.5 L1246.7 1484.32 L1260.38 1484.32 Q1267.05 1484.32 1267.57 1483.72 Q1268.31 1482.65 1269.23 1476.98 L1271.16 1476.98 L1269.01 1490.17 L1240.85 1490.17 Z" fill="#000000" fill-rule="evenodd" fill-opacity="1"></path><path clip-path="url(#clip740)" d="M1277.98 1465.9 Q1277.98 1454.75 1280.8 1448.67 Q1284.72 1439.63 1293.99 1439.63 Q1295.95 1439.63 1297.99 1440.18 Q1300.06 1440.7 1302.66 1442.74 Q1305.29 1444.78 1306.88 1448.11 Q1309.92 1454.56 1309.92 1465.9 Q1309.92 1476.98 1307.1 1483.02 Q1302.99 1491.84 1293.91 1491.84 Q1290.5 1491.84 1287.02 1490.1 Q1283.57 1488.36 1281.39 1484.17 Q1277.98 1477.91 1277.98 1465.9 M1284.28 1464.97 Q1284.28 1476.42 1285.09 1480.98 Q1286.02 1485.91 1288.54 1488.06 Q1291.1 1490.17 1293.91 1490.17 Q1296.95 1490.17 1299.47 1487.91 Q1302.03 1485.61 1302.81 1480.69 Q1303.66 1475.83 1303.62 1464.97 Q1303.62 1454.41 1302.88 1450.19 Q1301.88 1445.26 1299.21 1443.3 Q1296.58 1441.3 1293.91 1441.3 Q1292.91 1441.3 1291.84 1441.59 Q1290.8 1441.89 1289.28 1442.74 Q1287.76 1443.59 1286.58 1445.71 Q1285.43 1447.82 1284.87 1451 Q1284.28 1455.12 1284.28 1464.97 Z" fill="#000000" fill-rule="evenodd" fill-opacity="1"></path><path clip-path="url(#clip740)" d="M1753.88 1479.94 Q1753.88 1477.68 1755.18 1476.61 Q1756.47 1475.53 1758.14 1475.53 Q1759.88 1475.53 1761.11 1476.68 Q1762.37 1477.8 1762.37 1479.76 Q1762.37 1481.87 1760.88 1483.06 Q1759.44 1484.24 1757.36 1483.95 Q1759.18 1486.98 1762.51 1488.36 Q1765.89 1489.73 1769 1489.73 Q1772.26 1489.73 1774.89 1486.91 Q1777.56 1484.09 1777.56 1477.2 Q1777.56 1471.35 1775.26 1467.98 Q1773 1464.6 1768.52 1464.6 L1765.18 1464.6 Q1764.03 1464.6 1763.7 1464.49 Q1763.37 1464.38 1763.37 1463.75 Q1763.37 1463.01 1764.52 1462.86 Q1765.66 1462.86 1767.48 1462.64 Q1771.89 1462.49 1774.22 1458.67 Q1776.34 1455.12 1776.34 1450.04 Q1776.34 1445.41 1774.11 1443.48 Q1771.93 1441.52 1769.07 1441.52 Q1766.41 1441.52 1763.48 1442.63 Q1760.55 1443.74 1758.96 1446.22 Q1763.66 1446.22 1763.66 1450.04 Q1763.66 1451.71 1762.59 1452.82 Q1761.55 1453.89 1759.81 1453.89 Q1758.14 1453.89 1757.03 1452.86 Q1755.92 1451.78 1755.92 1449.97 Q1755.92 1445.63 1759.77 1442.63 Q1763.66 1439.63 1769.37 1439.63 Q1775 1439.63 1779.15 1442.59 Q1783.34 1445.56 1783.34 1450.12 Q1783.34 1454.6 1780.37 1458.27 Q1777.41 1461.94 1772.7 1463.45 Q1778.49 1464.6 1781.93 1468.53 Q1785.38 1472.42 1785.38 1477.2 Q1785.38 1483.13 1780.71 1487.5 Q1776.04 1491.84 1769.22 1491.84 Q1762.92 1491.84 1758.4 1488.43 Q1753.88 1485.02 1753.88 1479.94 Z" fill="#000000" fill-rule="evenodd" fill-opacity="1"></path><path clip-path="url(#clip740)" d="M1791.6 1465.9 Q1791.6 1454.75 1794.42 1448.67 Q1798.35 1439.63 1807.61 1439.63 Q1809.57 1439.63 1811.61 1440.18 Q1813.69 1440.7 1816.28 1442.74 Q1818.91 1444.78 1820.51 1448.11 Q1823.54 1454.56 1823.54 1465.9 Q1823.54 1476.98 1820.73 1483.02 Q1816.61 1491.84 1807.54 1491.84 Q1804.13 1491.84 1800.64 1490.1 Q1797.2 1488.36 1795.01 1484.17 Q1791.6 1477.91 1791.6 1465.9 M1797.9 1464.97 Q1797.9 1476.42 1798.72 1480.98 Q1799.64 1485.91 1802.16 1488.06 Q1804.72 1490.17 1807.54 1490.17 Q1810.57 1490.17 1813.09 1487.91 Q1815.65 1485.61 1816.43 1480.69 Q1817.28 1475.83 1817.24 1464.97 Q1817.24 1454.41 1816.5 1450.19 Q1815.5 1445.26 1812.84 1443.3 Q1810.2 1441.3 1807.54 1441.3 Q1806.54 1441.3 1805.46 1441.59 Q1804.42 1441.89 1802.9 1442.74 Q1801.39 1443.59 1800.2 1445.71 Q1799.05 1447.82 1798.49 1451 Q1797.9 1455.12 1797.9 1464.97 Z" fill="#000000" fill-rule="evenodd" fill-opacity="1"></path><path clip-path="url(#clip740)" d="M2266.67 1477.65 L2266.67 1475.31 L2289.98 1439.7 Q2290.57 1438.78 2291.5 1438.81 Q2292.35 1438.81 2292.53 1439.15 Q2292.72 1439.48 2292.72 1440.78 L2292.72 1475.31 L2300.32 1475.31 L2300.32 1477.65 L2292.72 1477.65 L2292.72 1484.24 Q2292.72 1486.43 2293.61 1487.13 Q2294.54 1487.84 2298.46 1487.84 L2300.06 1487.84 L2300.06 1490.17 Q2296.94 1489.95 2289.76 1489.95 Q2282.6 1489.95 2279.49 1490.17 L2279.49 1487.84 L2281.08 1487.84 Q2285.01 1487.84 2285.94 1487.17 Q2286.87 1486.47 2286.87 1484.24 L2286.87 1477.65 L2266.67 1477.65 M2268.82 1475.31 L2287.31 1475.31 L2287.31 1447 L2268.82 1475.31 Z" fill="#000000" fill-rule="evenodd" fill-opacity="1"></path><path clip-path="url(#clip740)" d="M2305.47 1465.9 Q2305.47 1454.75 2308.28 1448.67 Q2312.21 1439.63 2321.47 1439.63 Q2323.44 1439.63 2325.48 1440.18 Q2327.55 1440.7 2330.15 1442.74 Q2332.78 1444.78 2334.37 1448.11 Q2337.41 1454.56 2337.41 1465.9 Q2337.41 1476.98 2334.59 1483.02 Q2330.48 1491.84 2321.4 1491.84 Q2317.99 1491.84 2314.51 1490.1 Q2311.06 1488.36 2308.88 1484.17 Q2305.47 1477.91 2305.47 1465.9 M2311.77 1464.97 Q2311.77 1476.42 2312.58 1480.98 Q2313.51 1485.91 2316.03 1488.06 Q2318.58 1490.17 2321.4 1490.17 Q2324.44 1490.17 2326.96 1487.91 Q2329.52 1485.61 2330.29 1480.69 Q2331.15 1475.83 2331.11 1464.97 Q2331.11 1454.41 2330.37 1450.19 Q2329.37 1445.26 2326.7 1443.3 Q2324.07 1441.3 2321.4 1441.3 Q2320.4 1441.3 2319.33 1441.59 Q2318.29 1441.89 2316.77 1442.74 Q2315.25 1443.59 2314.06 1445.71 Q2312.91 1447.82 2312.36 1451 Q2311.77 1455.12 2311.77 1464.97 Z" fill="#000000" fill-rule="evenodd" fill-opacity="1"></path><path clip-path="url(#clip740)" d="M1294.06 1545.4 Q1294.06 1548.07 1292.42 1549.66 Q1290.83 1551.25 1288.82 1551.25 Q1287.04 1551.25 1286.1 1550.22 Q1285.16 1549.19 1285.16 1547.88 Q1285.16 1547.32 1285.4 1546.61 Q1285.63 1545.86 1286.15 1544.97 Q1286.71 1544.08 1287.88 1543.43 Q1289.05 1542.77 1290.64 1542.68 Q1290.32 1542.35 1290.22 1542.3 Q1289.52 1541.74 1288.21 1541.55 Q1288.02 1541.46 1287.36 1541.46 Q1284.13 1541.46 1280.85 1543.85 Q1277.62 1546.19 1273.64 1550.64 Q1268.63 1555.84 1265.39 1557.76 Q1279.59 1559.64 1279.59 1567.83 Q1279.59 1569.19 1279.21 1570.83 Q1278.46 1573.92 1278.46 1576.17 Q1278.46 1580.67 1281.51 1580.67 Q1284.46 1580.67 1286.33 1577.67 Q1288.25 1574.67 1289.85 1568.82 Q1290.08 1567.74 1290.32 1567.41 Q1290.55 1567.08 1291.21 1567.08 Q1292.38 1567.08 1292.38 1568.02 Q1291.3 1573.5 1288.91 1577.72 Q1285.87 1582.82 1281.32 1582.82 Q1277.53 1582.82 1275 1580.2 Q1272.51 1577.53 1272.51 1573.31 Q1272.51 1572.28 1272.89 1569.94 Q1273.17 1569.01 1273.17 1567.93 Q1273.17 1565.73 1271.95 1564.09 Q1270.73 1562.4 1268.77 1561.56 Q1266.8 1560.71 1265.16 1560.34 Q1263.57 1559.92 1262.02 1559.78 Q1257.34 1579.59 1256.68 1580.81 Q1256.26 1581.65 1255.32 1582.22 Q1254.39 1582.82 1253.4 1582.82 Q1252.47 1582.82 1251.53 1582.17 Q1250.64 1581.56 1250.64 1580.11 Q1250.64 1579.36 1251.01 1578 L1264.93 1522.72 L1265.21 1520.85 Q1265.21 1520.29 1264.97 1520.01 Q1264.79 1519.68 1263.66 1519.44 Q1262.58 1519.21 1260.43 1519.21 Q1259.54 1519.21 1259.12 1519.16 Q1258.74 1519.12 1258.41 1518.88 Q1258.09 1518.6 1258.09 1518.04 Q1258.09 1517.24 1258.41 1516.82 Q1258.79 1516.35 1259.07 1516.26 Q1259.35 1516.16 1259.91 1516.12 Q1260.71 1516.07 1263.38 1515.84 Q1266.05 1515.56 1268.35 1515.37 Q1270.64 1515.18 1271.62 1515.18 Q1272.19 1515.18 1272.47 1515.46 Q1272.8 1515.7 1272.84 1515.98 L1272.89 1516.21 L1262.91 1556.69 Q1267.03 1555.05 1273.55 1547.78 Q1281.09 1539.35 1287.55 1539.35 Q1290.6 1539.35 1292.33 1541.23 Q1294.06 1543.05 1294.06 1545.4 Z" fill="#000000" fill-rule="evenodd" fill-opacity="1"></path><polyline clip-path="url(#clip740)" style="stroke:#000000; stroke-linecap:butt; stroke-linejoin:round; stroke-width:4; stroke-opacity:1; fill:none" points="
  198.015,1408.76 198.015,47.2441 
  "></polyline>
<polyline clip-path="url(#clip740)" style="stroke:#000000; stroke-linecap:butt; stroke-linejoin:round; stroke-width:4; stroke-opacity:1; fill:none" points="
  2352.76,1408.76 2352.76,47.2441 
  "></polyline>
<polyline clip-path="url(#clip740)" style="stroke:#000000; stroke-linecap:butt; stroke-linejoin:round; stroke-width:4; stroke-opacity:1; fill:none" points="
  198.015,1408.76 223.872,1408.76 
  "></polyline>
<polyline clip-path="url(#clip740)" style="stroke:#000000; stroke-linecap:butt; stroke-linejoin:round; stroke-width:4; stroke-opacity:1; fill:none" points="
  198.015,954.924 223.872,954.924 
  "></polyline>
<polyline clip-path="url(#clip740)" style="stroke:#000000; stroke-linecap:butt; stroke-linejoin:round; stroke-width:4; stroke-opacity:1; fill:none" points="
  198.015,501.084 223.872,501.084 
  "></polyline>
<polyline clip-path="url(#clip740)" style="stroke:#000000; stroke-linecap:butt; stroke-linejoin:round; stroke-width:4; stroke-opacity:1; fill:none" points="
  198.015,47.2441 223.872,47.2441 
  "></polyline>
<path clip-path="url(#clip740)" d="M130.073 1410.41 Q130.073 1399.26 132.89 1393.18 Q136.818 1384.14 146.081 1384.14 Q148.045 1384.14 150.083 1384.7 Q152.158 1385.22 154.752 1387.25 Q157.383 1389.29 158.976 1392.63 Q162.015 1399.07 162.015 1410.41 Q162.015 1421.49 159.199 1427.53 Q155.086 1436.35 146.007 1436.35 Q142.598 1436.35 139.115 1434.61 Q135.669 1432.87 133.483 1428.68 Q130.073 1422.42 130.073 1410.41 M136.373 1409.49 Q136.373 1420.94 137.188 1425.49 Q138.114 1430.42 140.634 1432.57 Q143.191 1434.68 146.007 1434.68 Q149.046 1434.68 151.565 1432.42 Q154.122 1430.13 154.9 1425.2 Q155.753 1420.34 155.716 1409.49 Q155.716 1398.93 154.974 1394.7 Q153.974 1389.77 151.306 1387.81 Q148.675 1385.81 146.007 1385.81 Q145.007 1385.81 143.932 1386.1 Q142.895 1386.4 141.375 1387.25 Q139.856 1388.11 138.67 1390.22 Q137.522 1392.33 136.966 1395.52 Q136.373 1399.63 136.373 1409.49 Z" fill="#000000" fill-rule="evenodd" fill-opacity="1"></path><path clip-path="url(#clip740)" d="M136.966 937.526 L136.966 935.155 Q146.081 935.155 150.787 930.301 Q152.084 930.301 152.307 930.597 Q152.529 930.894 152.529 932.265 L152.529 974.841 Q152.529 977.101 153.64 977.805 Q154.752 978.509 159.606 978.509 L162.015 978.509 L162.015 980.844 Q159.347 980.621 149.713 980.621 Q140.078 980.621 137.447 980.844 L137.447 978.509 L139.856 978.509 Q144.636 978.509 145.785 977.842 Q146.934 977.138 146.934 974.841 L146.934 935.525 Q142.969 937.526 136.966 937.526 Z" fill="#000000" fill-rule="evenodd" fill-opacity="1"></path><path clip-path="url(#clip740)" d="M131.704 527.004 Q131.704 525.633 131.815 525.225 Q131.963 524.818 132.556 524.188 L147.119 507.958 Q155.086 498.99 155.086 491.172 Q155.086 486.095 152.418 482.464 Q149.787 478.832 144.933 478.832 Q141.598 478.832 138.781 480.87 Q135.965 482.908 134.668 486.54 Q134.891 486.466 135.669 486.466 Q137.559 486.466 138.596 487.651 Q139.671 488.837 139.671 490.431 Q139.671 492.469 138.337 493.469 Q137.04 494.433 135.743 494.433 Q135.224 494.433 134.52 494.321 Q133.853 494.21 132.779 493.173 Q131.704 492.098 131.704 490.208 Q131.704 484.909 135.706 480.685 Q139.745 476.461 145.896 476.461 Q152.862 476.461 157.42 480.611 Q162.015 484.724 162.015 491.172 Q162.015 493.432 161.311 495.507 Q160.644 497.545 159.718 499.139 Q158.828 500.732 156.383 503.289 Q153.937 505.845 151.973 507.661 Q150.009 509.477 145.6 513.331 L137.559 521.149 L151.232 521.149 Q157.902 521.149 158.421 520.556 Q159.162 519.482 160.088 513.812 L162.015 513.812 L159.866 527.004 L131.704 527.004 Z" fill="#000000" fill-rule="evenodd" fill-opacity="1"></path><path clip-path="url(#clip740)" d="M130.518 62.9369 Q130.518 60.6765 131.815 59.602 Q133.112 58.5274 134.779 58.5274 Q136.521 58.5274 137.744 59.6761 Q139.004 60.7877 139.004 62.7516 Q139.004 64.8638 137.522 66.0495 Q136.076 67.2353 134.001 66.9388 Q135.817 69.9774 139.152 71.3484 Q142.524 72.7194 145.637 72.7194 Q148.897 72.7194 151.528 69.9033 Q154.196 67.0871 154.196 60.1948 Q154.196 54.3401 151.899 50.9681 Q149.639 47.5961 145.155 47.5961 L141.82 47.5961 Q140.671 47.5961 140.338 47.485 Q140.004 47.3738 140.004 46.7439 Q140.004 46.0028 141.153 45.8545 Q142.302 45.8545 144.117 45.6322 Q148.527 45.484 150.861 41.6673 Q152.974 38.11 152.974 33.0335 Q152.974 28.4016 150.75 26.4747 Q148.564 24.5108 145.711 24.5108 Q143.043 24.5108 140.115 25.6225 Q137.188 26.7341 135.595 29.2168 Q140.301 29.2168 140.301 33.0335 Q140.301 34.701 139.226 35.8126 Q138.189 36.8872 136.447 36.8872 Q134.779 36.8872 133.668 35.8497 Q132.556 34.7751 132.556 32.9594 Q132.556 28.6239 136.41 25.6225 Q140.301 22.621 146.007 22.621 Q151.64 22.621 155.79 25.5854 Q159.977 28.5498 159.977 33.1076 Q159.977 37.5913 157.013 41.2597 Q154.048 44.9282 149.342 46.4474 Q155.123 47.5961 158.569 51.524 Q162.015 55.4147 162.015 60.1948 Q162.015 66.1236 157.346 70.4961 Q152.677 74.8316 145.859 74.8316 Q139.56 74.8316 135.039 71.4225 Q130.518 68.0134 130.518 62.9369 Z" fill="#000000" fill-rule="evenodd" fill-opacity="1"></path><path clip-path="url(#clip740)" d="M13.1632 761.773 L34.1497 766.973 Q35.4145 767.254 35.7425 767.488 Q36.0704 767.723 36.0704 768.378 Q36.0704 768.894 35.8361 769.222 Q35.6019 769.503 35.3677 769.503 L35.1335 769.55 Q34.9929 769.55 34.2903 769.456 Q33.5407 769.362 32.3228 769.269 Q31.1048 769.175 29.7463 769.175 Q22.0637 769.175 18.5035 772.922 Q14.8965 776.623 14.8965 782.994 Q14.8965 787.397 17.2387 791.332 Q19.581 795.267 23.2817 797.516 Q26.9356 799.765 30.7769 799.765 Q34.2903 799.765 36.5388 797.984 Q38.7874 796.204 39.5369 793.909 L41.2701 787.491 Q43.0034 780.746 43.7529 778.825 Q44.4556 776.904 46.0483 775.312 Q50.4517 770.58 57.2911 770.58 Q63.1936 770.58 68.9086 773.906 Q74.5769 777.232 78.2776 782.947 Q81.9315 788.662 81.9315 794.986 Q81.9315 806.089 75.0453 811.195 L80.4793 815.879 Q81.5099 816.769 81.6973 817.05 Q81.9315 817.285 81.9315 817.612 Q81.9315 818.034 81.6504 818.362 Q81.4162 818.69 80.9946 818.69 Q80.6667 818.69 69.6581 815.926 Q58.6496 813.162 58.4154 812.928 Q58.0406 812.553 58.0406 811.944 Q58.0406 810.82 59.118 810.82 Q59.3991 810.914 59.7739 811.007 Q63.1467 811.569 64.9737 811.569 Q68.3933 811.569 71.0167 810.398 Q73.5931 809.227 75.0922 807.494 Q76.5443 805.714 77.4812 803.325 Q78.3713 800.936 78.6992 798.921 Q78.9803 796.907 78.9803 794.799 Q78.9803 790.255 76.357 786.226 Q73.7337 782.151 69.6581 779.855 Q65.5826 777.513 61.3198 777.513 Q59.0712 777.513 57.3379 778.122 Q55.5578 778.731 54.5741 779.574 Q53.5904 780.371 52.8408 781.729 Q52.0913 783.088 51.8102 784.025 Q51.4823 784.915 51.1544 786.32 L48.4374 796.579 Q47.2194 800.701 43.7061 803.653 Q40.1927 806.557 34.8056 806.557 Q29.1373 806.557 23.8907 803.231 Q18.5972 799.858 15.4118 794.377 Q12.1795 788.85 12.1795 782.9 Q12.1795 778.216 14.0064 774.609 Q15.7865 771.002 19.1125 769.175 L13.6317 764.537 Q12.5542 763.6 12.3669 763.413 Q12.1795 763.179 12.1795 762.851 Q12.1795 762.289 12.5074 762.054 Q12.8353 761.773 13.1632 761.773 Z" fill="#000000" fill-rule="evenodd" fill-opacity="1"></path><path clip-path="url(#clip740)" d="M55.8389 760.475 Q39.6306 760.475 26.5609 754.432 Q21.08 751.855 16.4892 748.248 Q11.8984 744.641 9.88407 742.252 Q7.86974 739.863 7.86974 739.207 Q7.86974 738.27 8.80664 738.223 Q9.27509 738.223 10.4462 739.488 Q26.1861 754.947 55.8389 754.9 Q85.5854 754.9 100.716 739.863 Q102.356 738.223 102.871 738.223 Q103.808 738.223 103.808 739.207 Q103.808 739.863 101.887 742.158 Q99.9668 744.454 95.5634 748.014 Q91.16 751.574 85.7728 754.15 Q72.7031 760.475 55.8389 760.475 Z" fill="#000000" fill-rule="evenodd" fill-opacity="1"></path><path clip-path="url(#clip740)" d="M43.4719 680.218 Q46.142 680.218 47.7347 681.858 Q49.3275 683.451 49.3275 685.465 Q49.3275 687.245 48.2969 688.182 Q47.2663 689.119 45.9546 689.119 Q45.3925 689.119 44.6898 688.885 Q43.9403 688.65 43.0503 688.135 Q42.1602 687.573 41.5044 686.402 Q40.8485 685.231 40.7549 683.638 Q40.4269 683.966 40.3801 684.06 Q39.818 684.762 39.6306 686.074 Q39.5369 686.261 39.5369 686.917 Q39.5369 690.149 41.926 693.429 Q44.2682 696.661 48.7185 700.643 Q53.9183 705.655 55.8389 708.887 Q57.7127 694.693 65.9106 694.693 Q67.2691 694.693 68.9086 695.068 Q72.0004 695.818 74.2489 695.818 Q78.7461 695.818 78.7461 692.773 Q78.7461 689.821 75.748 687.948 Q72.7499 686.027 66.8943 684.434 Q65.8169 684.2 65.489 683.966 Q65.161 683.732 65.161 683.076 Q65.161 681.905 66.0979 681.905 Q71.5788 682.982 75.7948 685.371 Q80.9009 688.416 80.9009 692.96 Q80.9009 696.755 78.2776 699.284 Q75.6075 701.767 71.3914 701.767 Q70.3608 701.767 68.0186 701.392 Q67.0817 701.111 66.0042 701.111 Q63.8025 701.111 62.163 702.329 Q60.4766 703.547 59.6333 705.515 Q58.7901 707.482 58.4154 709.122 Q57.9938 710.714 57.8532 712.26 Q77.6686 716.945 78.8866 717.601 Q79.7298 718.022 80.2919 718.959 Q80.9009 719.896 80.9009 720.88 Q80.9009 721.817 80.2451 722.753 Q79.6361 723.643 78.1839 723.643 Q77.4344 723.643 76.0759 723.269 L20.7989 709.356 L18.9251 709.075 Q18.363 709.075 18.0819 709.309 Q17.754 709.496 17.5198 710.621 Q17.2856 711.698 17.2856 713.853 Q17.2856 714.743 17.2387 715.165 Q17.1919 715.539 16.9576 715.867 Q16.6766 716.195 16.1144 716.195 Q15.3181 716.195 14.8965 715.867 Q14.428 715.492 14.3343 715.211 Q14.2406 714.93 14.1938 714.368 Q14.147 713.572 13.9127 710.902 Q13.6317 708.232 13.4443 705.936 Q13.2569 703.641 13.2569 702.657 Q13.2569 702.095 13.538 701.814 Q13.7722 701.486 14.0533 701.439 L14.2875 701.392 L54.7615 711.37 Q53.1219 707.248 45.8609 700.736 Q37.4289 693.194 37.4289 686.73 Q37.4289 683.685 39.3027 681.952 Q41.1296 680.218 43.4719 680.218 Z" fill="#000000" fill-rule="evenodd" fill-opacity="1"></path><path clip-path="url(#clip740)" d="M102.871 674.149 Q102.403 674.149 101.232 672.931 Q85.4917 657.472 55.8389 657.472 Q26.0924 657.472 11.0552 672.322 Q9.32193 674.149 8.80664 674.149 Q7.86974 674.149 7.86974 673.212 Q7.86974 672.556 9.79038 670.261 Q11.711 667.918 16.1144 664.405 Q20.5179 660.845 25.905 658.222 Q38.9747 651.898 55.8389 651.898 Q72.0472 651.898 85.117 657.941 Q90.5978 660.517 95.1886 664.124 Q99.7794 667.731 101.794 670.12 Q103.808 672.509 103.808 673.212 Q103.808 674.149 102.871 674.149 Z" fill="#000000" fill-rule="evenodd" fill-opacity="1"></path><polyline clip-path="url(#clip743)" style="stroke:#009af9; stroke-linecap:butt; stroke-linejoin:round; stroke-width:8; stroke-opacity:1; fill:none" points="
  258.998,1265.19 279.531,1234.86 300.064,1200.12 320.597,1161.69 341.13,1120.96 361.664,1079.99 382.197,1041.22 402.73,1006.95 423.263,978.892 443.796,957.79 
  464.329,943.469 484.862,935.057 505.395,931.326 525.928,930.992 546.461,932.904 566.994,936.134 587.527,939.986 608.06,943.971 628.594,947.77 649.127,951.188 
  669.66,954.124 690.193,956.539 710.726,958.436 731.259,959.846 751.792,960.817 772.325,961.404 792.858,961.667 813.391,961.664 833.924,961.451 854.457,961.08 
  874.99,960.597 895.524,960.04 916.057,959.445 936.59,958.839 957.123,958.244 977.656,957.677 998.189,957.15 1018.72,956.672 1039.26,956.246 1059.79,955.876 
  1080.32,955.561 1100.85,955.298 1121.39,955.084 1141.92,954.915 1162.45,954.785 1182.99,954.691 1203.52,954.626 1224.05,954.586 1244.59,954.566 1265.12,954.563 
  1285.65,954.572 1306.19,954.59 1326.72,954.615 1347.25,954.643 1367.78,954.674 1388.32,954.706 1408.85,954.736 1429.38,954.766 1449.92,954.793 1470.45,954.818 
  1490.98,954.84 1511.52,954.86 1532.05,954.876 1552.58,954.89 1573.12,954.902 1593.65,954.911 1614.18,954.919 1634.71,954.925 1655.25,954.929 1675.78,954.932 
  1696.31,954.933 1716.85,954.934 1737.38,954.935 1757.91,954.935 1778.45,954.934 1798.98,954.933 1819.51,954.932 1840.05,954.931 1860.58,954.93 1881.11,954.929 
  1901.64,954.928 1922.18,954.927 1942.71,954.927 1963.24,954.926 1983.78,954.925 2004.31,954.925 2024.84,954.924 2045.38,954.924 2065.91,954.924 2086.44,954.923 
  2106.97,954.923 2127.51,954.923 2148.04,954.923 2168.57,954.923 2189.11,954.923 2209.64,954.923 2230.17,954.923 2250.71,954.923 2271.24,954.923 2291.77,954.923 
  
  "></polyline>
<polyline clip-path="url(#clip743)" style="stroke:#e26f46; stroke-linecap:butt; stroke-linejoin:round; stroke-width:8; stroke-opacity:1; fill:none" points="
  258.998,1031.69 279.531,948.196 300.064,863.433 320.597,785.452 341.13,721.945 361.664,677.8 382.197,653.921 402.73,647.818 423.263,655.216 443.796,671.609 
  464.329,693.17 484.862,717.063 505.395,741.381 525.928,764.943 546.461,787.083 566.994,807.475 587.527,826.003 608.06,842.678 628.594,857.582 649.127,870.835 
  669.66,882.568 690.193,892.92 710.726,902.021 731.259,909.998 751.792,916.966 772.325,923.033 792.858,928.294 813.391,932.84 833.924,936.75 854.457,940.096 
  874.99,942.945 895.524,945.357 916.057,947.385 936.59,949.077 957.123,950.478 977.656,951.627 998.189,952.56 1018.72,953.307 1039.26,953.897 1059.79,954.355 
  1080.32,954.702 1100.85,954.959 1121.39,955.141 1141.92,955.263 1162.45,955.338 1182.99,955.375 1203.52,955.384 1224.05,955.373 1244.59,955.347 1265.12,955.311 
  1285.65,955.269 1306.19,955.224 1326.72,955.179 1347.25,955.135 1367.78,955.094 1388.32,955.057 1408.85,955.023 1429.38,954.993 1449.92,954.968 1470.45,954.947 
  1490.98,954.929 1511.52,954.915 1532.05,954.904 1552.58,954.896 1573.12,954.891 1593.65,954.887 1614.18,954.885 1634.71,954.885 1655.25,954.886 1675.78,954.887 
  1696.31,954.889 1716.85,954.892 1737.38,954.895 1757.91,954.898 1778.45,954.901 1798.98,954.903 1819.51,954.906 1840.05,954.909 1860.58,954.911 1881.11,954.913 
  1901.64,954.915 1922.18,954.917 1942.71,954.919 1963.24,954.92 1983.78,954.921 2004.31,954.922 2024.84,954.923 2045.38,954.923 2065.91,954.924 2086.44,954.924 
  2106.97,954.924 2127.51,954.924 2148.04,954.925 2168.57,954.925 2189.11,954.925 2209.64,954.925 2230.17,954.925 2250.71,954.925 2271.24,954.924 2291.77,954.924 
  
  "></polyline>
<polyline clip-path="url(#clip743)" style="stroke:#3da44d; stroke-linecap:butt; stroke-linejoin:round; stroke-width:8; stroke-opacity:1; fill:none" points="
  258.998,1349.22 279.531,1336.19 300.064,1324.04 320.597,1314.01 341.13,1305.92 361.664,1298.34 382.197,1289.28 402.73,1276.66 423.263,1258.27 443.796,1231.61 
  464.329,1194.03 484.862,1143.89 505.395,1084.01 525.928,1026.19 546.461,989.452 566.994,985.107 587.527,1005.74 608.06,1034.9 628.594,1060.34 649.127,1076.59 
  669.66,1082.15 690.193,1077.03 710.726,1061.82 731.259,1037.67 751.792,1007 772.325,974.245 792.858,945.812 813.391,928.135 833.924,924.484 854.457,933.18 
  874.99,949.034 895.524,966.331 916.057,980.838 936.59,990.221 957.123,993.65 977.656,991.32 998.189,984.158 1018.72,973.698 1039.26,961.952 1059.79,951.159 
  1080.32,943.318 1100.85,939.656 1121.39,940.294 1141.92,944.323 1162.45,950.227 1182.99,956.397 1203.52,961.524 1224.05,964.78 1244.59,965.837 1265.12,964.813 
  1285.65,962.168 1306.19,958.595 1326.72,954.882 1347.25,951.757 1367.78,949.751 1388.32,949.099 1408.85,949.722 1429.38,951.289 1449.92,953.331 1470.45,955.365 
  1490.98,956.992 1511.52,957.964 1532.05,958.193 1552.58,957.749 1573.12,956.815 1593.65,955.644 1614.18,954.496 1634.71,953.593 1655.25,953.077 1675.78,952.992 
  1696.31,953.29 1716.85,953.854 1737.38,954.533 1757.91,955.177 1778.45,955.666 1798.98,955.929 1819.51,955.952 1840.05,955.766 1860.58,955.439 1881.11,955.056 
  1901.64,954.701 1922.18,954.439 1942.71,954.308 1963.24,954.314 1983.78,954.436 2004.31,954.631 2024.84,954.852 2045.38,955.051 2065.91,955.193 2086.44,955.26 
  2106.97,955.249 2127.51,955.175 2148.04,955.063 2168.57,954.939 2189.11,954.83 2209.64,954.755 2230.17,954.723 2250.71,954.735 2271.24,954.781 2291.77,954.848 
  
  "></polyline>
<polyline clip-path="url(#clip743)" style="stroke:#c271d2; stroke-linecap:butt; stroke-linejoin:round; stroke-width:8; stroke-opacity:1; fill:none" points="
  258.998,1305.74 279.531,1231.37 300.064,959.575 320.597,1043.22 341.13,1204.3 361.664,1222.06 382.197,1151.67 402.73,1018 423.263,1023.98 443.796,1104.65 
  464.329,1117.79 484.862,1063.58 505.395,987.608 525.928,979.893 546.461,1015.67 566.994,1022.29 587.527,990.122 608.06,951.408 628.594,944.271 649.127,958.089 
  669.66,961.19 690.193,946.914 710.726,930.787 731.259,927.638 751.792,933.346 772.325,935.69 792.858,931.449 813.391,926.58 833.924,926.492 854.457,929.806 
  874.99,932.154 895.524,932.172 916.057,931.883 936.59,933.193 957.123,935.696 977.656,937.893 998.189,939.238 1018.72,940.383 1039.26,941.993 1059.79,943.962 
  1080.32,945.785 1100.85,947.253 1121.39,948.573 1141.92,949.978 1162.45,951.448 1182.99,952.815 1203.52,954.002 1224.05,955.076 1244.59,956.122 1265.12,957.139 
  1285.65,958.074 1306.19,958.9 1326.72,959.641 1347.25,960.33 1367.78,960.969 1388.32,961.545 1408.85,962.048 1429.38,962.489 1449.92,962.881 1470.45,963.228 
  1490.98,963.528 1511.52,963.778 1532.05,963.984 1552.58,964.153 1573.12,964.287 1593.65,964.387 1614.18,964.455 1634.71,964.493 1655.25,964.504 1675.78,964.492 
  1696.31,964.457 1716.85,964.401 1737.38,964.326 1757.91,964.235 1778.45,964.128 1798.98,964.008 1819.51,963.875 1840.05,963.732 1860.58,963.579 1881.11,963.417 
  1901.64,963.249 1922.18,963.074 1942.71,962.894 1963.24,962.709 1983.78,962.521 2004.31,962.331 2024.84,962.138 2045.38,961.944 2065.91,961.75 2086.44,961.555 
  2106.97,961.36 2127.51,961.167 2148.04,960.974 2168.57,960.784 2189.11,960.595 2209.64,960.408 2230.17,960.224 2250.71,960.043 2271.24,959.864 2291.77,959.689 
  
  "></polyline>
<polyline clip-path="url(#clip743)" style="stroke:#ac8d18; stroke-linecap:butt; stroke-linejoin:round; stroke-width:8; stroke-opacity:1; fill:none" points="
  258.998,1299.87 279.531,1309.66 300.064,1312.69 320.597,1310.67 341.13,1303.95 361.664,1291.99 382.197,1273.38 402.73,1245.62 423.263,1204.65 443.796,1144.46 
  464.329,1057.23 484.862,937.121 505.395,792.731 525.928,665.588 546.461,616.44 566.994,660.389 587.527,752.967 608.06,848.045 628.594,925.666 649.127,982.94 
  669.66,1022.74 690.193,1048.67 710.726,1063.67 731.259,1069.85 751.792,1068.69 772.325,1061.23 792.858,1048.35 813.391,1030.95 833.924,1010.13 854.457,987.367 
  874.99,964.498 895.524,943.611 916.057,926.699 936.59,915.226 957.123,909.787 977.656,910.011 998.189,914.769 1018.72,922.546 1039.26,931.806 1059.79,941.244 
  1080.32,949.892 1100.85,957.123 1121.39,962.602 1141.92,966.223 1162.45,968.046 1182.99,968.256 1203.52,967.119 1224.05,964.957 1244.59,962.12 1265.12,958.96 
  1285.65,955.808 1306.19,952.945 1326.72,950.587 1347.25,948.871 1367.78,947.852 1388.32,947.507 1408.85,947.757 1429.38,948.475 1449.92,949.515 1470.45,950.73 
  1490.98,951.981 1511.52,953.155 1532.05,954.167 1552.58,954.962 1573.12,955.515 1593.65,955.827 1614.18,955.918 1634.71,955.826 1655.25,955.596 1675.78,955.278 
  1696.31,954.921 1716.85,954.568 1737.38,954.253 1757.91,954.004 1778.45,953.833 1798.98,953.746 1819.51,953.739 1840.05,953.802 1860.58,953.919 1881.11,954.072 
  1901.64,954.245 1922.18,954.42 1942.71,954.583 1963.24,954.724 1983.78,954.836 2004.31,954.917 2024.84,954.965 2045.38,954.985 2065.91,954.981 2086.44,954.959 
  2106.97,954.925 2127.51,954.886 2148.04,954.847 2168.57,954.813 2189.11,954.786 2209.64,954.769 2230.17,954.762 2250.71,954.764 2271.24,954.775 2291.77,954.793 
  
  "></polyline>
<polyline clip-path="url(#clip743)" style="stroke:#00a9ad; stroke-linecap:butt; stroke-linejoin:round; stroke-width:8; stroke-opacity:1; fill:none" points="
  258.998,1047.7 279.531,1091.22 300.064,1112.73 320.597,1121.52 341.13,1121.61 361.664,1114.87 382.197,1102.07 402.73,1083.38 423.263,1058.56 443.796,1027.06 
  464.329,988.101 484.862,940.734 505.395,883.969 525.928,816.967 546.461,739.387 566.994,651.915 587.527,556.962 608.06,459.367 628.594,366.687 649.127,288.489 
  669.66,234.299 690.193,210.709 710.726,219.118 731.259,255.509 751.792,312.291 772.325,380.941 792.858,454.04 813.391,526.198 833.924,594.067 854.457,655.917 
  874.99,711.123 895.524,759.73 916.057,802.141 936.59,838.925 957.123,870.694 977.656,898.042 998.189,921.517 1018.72,941.604 1039.26,958.728 1059.79,973.254 
  1080.32,985.498 1100.85,995.729 1121.39,1004.18 1141.92,1011.04 1162.45,1016.48 1182.99,1020.66 1203.52,1023.7 1224.05,1025.72 1244.59,1026.81 1265.12,1027.06 
  1285.65,1026.57 1306.19,1025.41 1326.72,1023.65 1347.25,1021.36 1367.78,1018.6 1388.32,1015.45 1408.85,1011.95 1429.38,1008.18 1449.92,1004.2 1470.45,1000.05 
  1490.98,995.81 1511.52,991.522 1532.05,987.243 1552.58,983.021 1573.12,978.905 1593.65,974.935 1614.18,971.15 1634.71,967.582 1655.25,964.26 1675.78,961.204 
  1696.31,958.43 1716.85,955.948 1737.38,953.764 1757.91,951.877 1778.45,950.281 1798.98,948.967 1819.51,947.922 1840.05,947.13 1860.58,946.571 1881.11,946.225 
  1901.64,946.072 1922.18,946.089 1942.71,946.253 1963.24,946.542 1983.78,946.936 2004.31,947.415 2024.84,947.958 2045.38,948.549 2065.91,949.172 2086.44,949.812 
  2106.97,950.456 2127.51,951.094 2148.04,951.715 2168.57,952.312 2189.11,952.878 2209.64,953.408 2230.17,953.898 2250.71,954.344 2271.24,954.747 2291.77,955.103 
  
  "></polyline>
</svg>